# xmcd CD database file
#
# Track frame offsets:
#	150
#	22795
#	47403
#	63743
#	80578
#	98588
#	106668
#	129760
#	154215
#	166653
#	184745
#
# Disc length: 2775 seconds
#
# Revision: 2
# Processed by: cddbd v1.5.2PL0 Copyright (c) Steve Scherf et al.
# Submitted via: CDex 1.70beta2
#
DISCID=750ad50b
DTITLE=SAL - DUSK
DYEAR=2003
DGENRE=Pop
TTITLE0=欠片
TTITLE1=心に夢
TTITLE2=温度
TTITLE3=シナリオ
TTITLE4=s・h・f・t
TTITLE5=social wings
TTITLE6=Where is freedom?
TTITLE7=背中
TTITLE8=千面鏡
TTITLE9=肝心
TTITLE10=一日千秋
EXTD=YEAR: 2003
EXTT0=
EXTT1=
EXTT2=
EXTT3=
EXTT4=
EXTT5=
EXTT6=
EXTT7=
EXTT8=
EXTT9=
EXTT10=
PLAYORDER=
